<?xml version="1.0" encoding="utf-8"?>
<!-- Generator: Adobe Illustrator 19.0.0, SVG Export Plug-In . SVG Version: 6.00 Build 0)  -->
<svg version="1.1" xmlns="http://www.w3.org/2000/svg" xmlns:xlink="http://www.w3.org/1999/xlink" x="0px" y="0px"
	 viewBox="0 0 300.5 300.5" style="enable-background:new 0 0 300.5 300.5;" xml:space="preserve">
<style type="text/css">
	.st0{fill:none;stroke:#04A150;stroke-width:12;stroke-miterlimit:10;}
	.st1{fill:#04A150;}
</style>
<g id="レイヤー_1">
	<circle id="XMLID_2_" class="st0" cx="150.3" cy="150.3" r="144.3"/>
	<rect id="XMLID_3_" x="123.2" y="68.5" class="st1" width="54.1" height="163.5"/>
	<rect id="XMLID_4_" x="68.5" y="123.2" class="st1" width="163.5" height="54.1"/>
</g>
<g id="レイヤー_6">
	<g id="XMLID_26_">
		<path id="XMLID_27_" d="M64.3,228.2l-3.7-3.1c1.9-2.3,2.1-4.4,0.7-6.5c-0.9-1.3-1.9-2-2.9-2.3c-0.9-0.2-1.7,0-2.5,0.5
			c-1,0.7-1.5,1.6-1.6,2.6c0,0.9,0.3,2.3,0.9,4.1l0.5,1.4c1.2,3.1,1.6,5.5,1.2,7.3c-0.3,1.4-1.3,2.7-2.8,3.8
			c-2.1,1.5-4.2,1.9-6.5,1.1c-2-0.7-3.9-2.2-5.7-4.7c-1.7-2.4-2.5-4.6-2.5-6.8c0-2,0.7-3.9,2.1-5.6l3.8,2.9c-1.1,1.3-1.7,2.6-1.7,4
			c0,1.2,0.4,2.3,1.1,3.5c2,2.9,4.1,3.6,6.1,2.1c1-0.7,1.6-1.6,1.6-2.6c0.1-1-0.3-2.4-1-4.4l-0.5-1.4c-1.1-3-1.4-5.3-0.9-7.1
			c0.4-1.4,1.3-2.7,2.9-3.8c1.8-1.3,3.8-1.6,5.9-0.9c2,0.6,3.7,2,5.3,4.2C66.9,220.6,67,224.5,64.3,228.2z"/>
		<path id="XMLID_29_" d="M79.6,234.6l-11.8,25.1l-3.7-3.4l3.6-7.3l-6.2-5.8l-7,4.1l-3.3-3.1l24.2-13.5L79.6,234.6z M69.4,245.9
			l2.5-5c0.4-0.7,1.4-2.6,3.2-5.9l-0.2-0.2c-2.1,1.4-4,2.6-5.6,3.6l-4.8,2.9L69.4,245.9z"/>
		<path id="XMLID_32_" d="M102.4,250.4l-1.9,3.1l-11.3-7l-3.7,6l8.6,5.3l-1.9,3.1l-8.6-5.3l-6.3,10.2l-4.1-2.5L87,240.9L102.4,250.4
			z"/>
		<path id="XMLID_34_" d="M120.9,257.4l-1.3,3.4l-12.5-4.7l-2.5,6.5l9.4,3.6l-1.3,3.4l-9.4-3.6l-3,7.9l12.8,4.8l-1.3,3.4l-17.2-6.5
			l9.4-24.7L120.9,257.4z"/>
		<path id="XMLID_36_" d="M141.6,260.9l-0.6,3.7l-8.1-1.4l-3.8,22.4l-4.8-0.8l3.8-22.4l-8-1.3l0.6-3.7L141.6,260.9z"/>
		<path id="XMLID_38_" d="M163.3,260.2l-8.5,15.8l0.4,10.9l-4.8,0.2l-0.4-10.9l-9.4-15.2l5.3-0.2l5.8,9.6c0.1,0.2,0.4,0.7,0.9,1.6
			c0.3-0.6,0.6-1.2,0.8-1.7l5-9.9L163.3,260.2z"/>
		<path id="XMLID_40_" d="M190.3,252.7l1.1,3.5l-12.7,3.9l2.1,6.8l9.6-3l1.1,3.5l-9.6,3l3.5,11.5l-4.6,1.4l-7.8-25.2L190.3,252.7z"
			/>
		<path id="XMLID_42_" d="M196.6,249.5l11,24l-4.4,2l-11-24L196.6,249.5z"/>
		<path id="XMLID_44_" d="M200.7,247.8l8.3-5.3c5.5-3.5,9.5-3.2,12.1,0.8c0.9,1.5,1.3,3,1,4.6c-0.2,1.4-0.9,2.7-2,4l12.1,7.1
			l-4.3,2.8l-11-7l-1,0.7l-3.3,2.1l6.3,9.9l-3.9,2.5L200.7,247.8z M206.5,248.2l4.2,6.5l4-2.6c3-1.9,3.8-4,2.4-6.2
			c-1.4-2.1-3.5-2.3-6.4-0.4L206.5,248.2z"/>
		<path id="XMLID_47_" d="M236.4,227.9l-2.6,4c-2.5-1.6-4.7-1.6-6.5,0.2c-1.1,1.1-1.8,2.1-1.9,3.2c-0.1,0.9,0.2,1.7,0.9,2.5
			c0.8,0.9,1.8,1.3,2.8,1.3c0.9-0.1,2.2-0.6,3.9-1.5l1.3-0.7c2.9-1.6,5.3-2.3,7.1-2.1c1.5,0.2,2.8,0.9,4.1,2.3c1.7,1.9,2.4,4,2,6.3
			c-0.4,2.1-1.7,4.2-3.9,6.2c-2.1,2-4.3,3.1-6.5,3.4c-2,0.3-3.9-0.2-5.8-1.3l2.4-4.1c1.4,0.9,2.8,1.3,4.1,1.2
			c1.2-0.1,2.3-0.7,3.3-1.6c2.6-2.4,3-4.5,1.3-6.3c-0.9-0.9-1.8-1.3-2.8-1.3c-1,0.1-2.4,0.6-4.3,1.6l-1.3,0.7
			c-2.8,1.4-5.1,2.1-6.9,1.9c-1.5-0.2-2.9-1-4.2-2.4c-1.5-1.6-2.1-3.5-1.7-5.8c0.4-2,1.5-4,3.5-5.8
			C228.5,226.2,232.3,225.6,236.4,227.9z"/>
		<path id="XMLID_49_" d="M245.4,206.1l3,2.2l-4.9,6.5l18.1,13.6l-2.9,3.9l-18.1-13.6l-4.9,6.5l-3-2.2L245.4,206.1z"/>
	</g>
</g>
<g id="レイヤー_5">
	<g id="XMLID_6_">
		<path id="XMLID_10_" d="M94.8,29.4l4.9-2.1c0.3-0.1,0.5,0,0.6,0.2l0.7,1.9l0.6,1.5l1.7,4c0.1,0.2,0.1,0.3,0.1,0.4
			c0,0.1-0.1,0.1-0.3,0.2l-3.1,1.3c-0.2,0.1-0.3,0.1-0.4,0.1c-0.1,0-0.1-0.1-0.2-0.3l-1.8-4.3l-22.9,9.3l1.8,4.3
			c0.1,0.2,0.1,0.3,0.1,0.4c0,0.1-0.1,0.1-0.3,0.2l-3.1,1.3c-0.2,0.1-0.3,0.1-0.4,0.1s-0.1-0.1-0.2-0.3l-1.6-4.1l-0.5-1.2l-1-2.2
			c-0.1-0.2,0-0.4,0.3-0.5l5-2l7.7-3.2l-0.2-0.5c-0.6-1.5-1.2-2.6-1.7-3.4c1.4-0.5,2.8-1,4.1-1.4c0.4-0.1,0.7-0.1,0.7,0.1
			c0,0.1,0.1,0.4,0.1,0.8c0,0.4,0.2,1.1,0.7,2.3l0.2,0.5L94.8,29.4z M79.3,66c5.9-3,10.1-6.2,12.6-9.5c-2.1,0-4.2,0.2-6.2,0.4
			l-0.4,1.6c-0.1,0.2-0.2,0.4-0.4,0.5c-0.1,0-0.3,0.1-0.5,0.1h-2.6c-0.4,0-0.6-0.1-0.7-0.2c0-0.1,0-0.2,0-0.4c0.3-0.9,0.6-1.9,0.9-3
			c0.4-1.8,0.6-3.7,0.8-5.5l-3.7,1.5l-4.6,2c-0.2,0.1-0.3,0.1-0.4,0.1s-0.1-0.1-0.2-0.3l-1.2-2.8c-0.1-0.2-0.1-0.3-0.1-0.4
			s0.1-0.1,0.3-0.2l4.7-1.8l5.5-2.3c0.1-0.8,0.1-1.5,0.1-2.2c0.1-1.6,0-3-0.2-4.2c1.7-0.3,3.1-0.6,4.4-0.7c0.4,0,0.6,0,0.7,0.3
			c0.1,0.2,0,0.5-0.2,0.8c-0.2,0.3-0.3,0.9-0.4,1.8L87.4,44l13.1-5.3l4.6-2c0.2-0.1,0.3-0.1,0.4-0.1c0.1,0,0.1,0.1,0.2,0.3l1.2,2.8
			c0.1,0.2,0.1,0.3,0.1,0.4c0,0.1-0.1,0.1-0.3,0.2l-4.7,1.8l-2.4,1c0.2,3.6-0.2,6.7-1.1,9.5c3.4,0,7.3,0.3,11.8,0.7
			c0.2,0,0.3,0.1,0.4,0.2c0,0.1,0,0.3,0,0.6l-0.7,3.3c0,0.3-0.2,0.4-0.3,0.5c-0.1,0-0.2,0-0.4,0c-4.7-0.9-8.9-1.4-12.4-1.5
			c-2.4,4.1-6.7,8.1-13,11.7c-0.3,0.2-0.5,0.3-0.6,0.3c-0.3,0.1-0.5,0.1-0.6,0c-0.1-0.1-0.4-0.3-0.7-0.6
			C80.9,67.1,80.1,66.4,79.3,66z M86.3,53.3c2.8-0.3,5.4-0.6,7.7-0.6c1-2.3,1.4-5,1.3-7.9L87,48.2C86.9,49.6,86.7,51.3,86.3,53.3z"
			/>
		<path id="XMLID_16_" d="M149.4,28.9c-0.6,1-1,2-1.3,3.2c-0.2,0.7-0.4,1.1-0.6,1.1c-0.1,0-0.4-0.1-1-0.2c-2-0.6-3.9-1.3-5.8-2.1
			l0.4,2.9c0,0.3-0.1,0.4-0.3,0.5l-5.2,0.6l-2.8,0.3l0.5,4.4l4.5-0.6l5.4-0.7c0.2,0,0.4,0,0.4,0c0.1,0,0.1,0.2,0.1,0.3l0.4,3
			c0,0.2,0,0.3,0,0.4s-0.2,0.1-0.4,0.1l-5.4,0.6l-4.5,0.6l0.6,4.8l9.4-1.2l5.1-0.7c0.2,0,0.3,0,0.4,0c0,0,0.1,0.2,0.1,0.4l0.4,3.1
			c0,0.2,0,0.3,0,0.4c0,0-0.2,0.1-0.3,0.1l-5.1,0.6l-22.7,2.8l-5.1,0.7c-0.2,0-0.3,0-0.4,0c0,0-0.1-0.2-0.1-0.3l-0.4-3.1
			c0-0.2,0-0.4,0-0.4c0,0,0.1-0.1,0.3-0.1l5.2-0.6l9-1.1l-0.6-4.8l-4,0.5L120,45c-0.2,0-0.4,0-0.4,0s-0.1-0.2-0.1-0.3l-0.4-3
			c0-0.2,0-0.3,0-0.4c0,0,0.2-0.1,0.4-0.1l5.4-0.6l4-0.5l-0.5-4.4l-2.5,0.3l-5.1,0.7c-0.2,0-0.3,0-0.4,0c0,0-0.1-0.2-0.1-0.3
			l-0.3-2.6c-1.5,1.2-3,2.4-4.5,3.3c-0.5,0.3-0.9,0.5-0.9,0.5c-0.2,0-0.5-0.3-0.9-0.9c-0.6-1-1.3-1.8-2.1-2.4c3.7-2.3,6.7-4.6,9-7
			c2-2.1,3.6-4.3,4.9-6.9c0.6-1.1,1-2.1,1.1-3.1c1.7,0,3.1,0.1,4.3,0.3c0.5,0.1,0.8,0.2,0.8,0.5c0,0.2-0.1,0.4-0.3,0.6l-0.4,0.4
			c2.7,2.8,5.8,5,9.1,6.6C142.7,27,145.8,28.1,149.4,28.9z M121.1,32.7c0.5,0,1.9-0.2,4.3-0.5L135,31l4.7-0.6
			c-4.3-2.1-7.8-4.7-10.6-7.8C127.1,26.4,124.4,29.7,121.1,32.7z"/>
		<path id="XMLID_19_" d="M159.2,29.5c-0.2,0-0.3-0.1-0.4-0.1c0-0.1,0-0.2,0-0.4l0.4-2.5c0-0.2,0.1-0.3,0.2-0.4c0,0,0.2,0,0.4,0
			L165,27l16.2,2.3l6.3,0.8c0.2,0,0.4,0.1,0.4,0.1c0,0.1,0,0.2,0,0.4l-0.5,2.9l-0.4,2.6l-0.4,3c0,0.2-0.1,0.3-0.2,0.4
			c-0.1,0-0.2,0-0.4,0l-6.3-1l-5.5-0.8l-0.4,2.8l8.7,1.2l5.6,0.7c0.3,0,0.5,0.2,0.4,0.4c0,0,0,0.1,0,0.1c-0.1,0.2-0.4,1.4-0.9,3.5
			c-0.6,2.7-1.3,4.4-2.1,5.4c-1,1.3-2.6,1.7-5,1.4c-0.9-0.1-1.7-0.3-2.3-0.4c-0.6-0.1-0.9-0.3-1-0.5c-0.1-0.2-0.2-0.5-0.2-1.1
			c0-0.8-0.2-1.8-0.5-2.8c1.5,0.5,2.8,0.8,3.9,1c1.1,0.2,1.8,0,2.1-0.5c0.4-0.6,0.8-1.8,1.2-3.7l-10.3-1.5l-0.4,3.6
			c-0.2,1.6-0.4,3.2-0.5,4.7c-0.1,1.2-0.2,1.9-0.2,1.9c0,0.2-0.1,0.4-0.2,0.4c-0.1,0-0.2,0.1-0.4,0l-3.3-0.5c-0.2,0-0.3-0.1-0.4-0.2
			c0-0.1,0-0.2,0-0.4l0.7-4.5c0.1-0.4,0.2-1.1,0.3-2.1l0.2-1.6c-3.7,2.9-8.3,4.9-13.7,5.8c-0.6,0.1-0.9,0.1-1,0.1
			c-0.2,0-0.5-0.4-0.7-1.1c-0.4-1-0.8-1.9-1.3-2.7c6.2-0.7,11-2.2,14.5-4.5l-6.9-1l-0.5,1c-0.1,0.3-0.3,0.4-0.7,0.3
			c-0.2,0-0.7-0.1-1.5-0.3c-1.3-0.3-2-0.6-2-0.8c0,0,0-0.1,0.1-0.2c1.3-2.2,2.4-4.4,3.3-6.8c0.4-1,0.7-1.8,0.8-2.4
			c0.1-0.3,0.3-0.5,0.6-0.5l5.4,0.8l5.2,0.7l0.3-2.7l-6.7-1L159.2,29.5z M172.4,25.5c0.5-0.4,1-0.8,1.5-1.2l-4.3-0.7
			c0.3,0.7,0.6,1.5,0.8,2.2c0,0.1,0,0.2,0,0.3c0,0.1-0.2,0.2-0.5,0.2l-2.7,0.2c-0.2,0-0.4,0-0.4,0c-0.2,0-0.3-0.2-0.3-0.5
			c-0.2-1.2-0.5-2.2-0.8-3l-2.8-0.4c-0.9,1-2,1.9-3.4,2.9c-0.5,0.4-0.8,0.5-1,0.5c-0.1,0-0.4-0.3-0.8-0.8c-0.4-0.6-1-1.3-1.7-1.9
			c2.5-1.6,4.5-3.5,5.9-5.6c0.3-0.4,0.7-1,1-1.7c1.2,0.3,2.3,0.7,3.4,1c0.4,0.1,0.6,0.3,0.5,0.6c0,0.2-0.2,0.3-0.4,0.5
			c-0.3,0.2-0.6,0.5-0.8,0.9l-0.5,0.6l4.6,0.7l4.6,0.6c0.2,0,0.4,0.1,0.4,0.1c0,0.1,0,0.2,0,0.4l-0.3,2.3c1.2-1.1,2.2-2.4,3-3.7
			c0.3-0.4,0.6-1,0.9-1.8c1.2,0.3,2.2,0.6,3.2,1c0.4,0.2,0.6,0.4,0.6,0.6c0,0.2-0.2,0.3-0.4,0.5c-0.2,0.1-0.4,0.4-0.7,0.9l-0.4,0.6
			l5.8,0.8l5.7,0.7c0.3,0,0.4,0.2,0.3,0.5l-0.4,2.5c0,0.3-0.2,0.4-0.5,0.4l-5.7-0.9l-0.6-0.1c0.3,0.6,0.5,1.3,0.8,2.2
			c0,0.1,0,0.2,0,0.3c0,0.1-0.2,0.2-0.5,0.2l-2.7,0.2c-0.2,0-0.4,0-0.4,0c-0.2,0-0.3-0.2-0.3-0.4c-0.2-1.2-0.5-2.2-0.8-3.1l-3-0.4
			c-0.9,1-1.7,1.8-2.6,2.5c-0.5,0.4-0.8,0.6-0.9,0.6c-0.1,0-0.4-0.3-0.8-0.8C173.7,26.5,173.1,26,172.4,25.5z M161.8,38.8l8.3,1.2
			l0.4-2.8l-7.5-1.1L161.8,38.8z M183.4,33l-8.3-1.2l-0.4,2.7l8.2,1.2L183.4,33z"/>
		<path id="XMLID_24_" d="M201.5,44.4l-4.7-1.9c-0.3-0.1-0.4-0.3-0.3-0.5l1.5-3.6c0.1-0.2,0.3-0.3,0.6-0.2l4.6,2.1l22.1,9.5l4.7,1.9
			c0.3,0.1,0.3,0.3,0.2,0.5l-1.5,3.6c-0.1,0.2-0.3,0.3-0.5,0.2l-4.7-2.1L201.5,44.4z"/>
	</g>
</g>
</svg>
